<mxfile host="app.diagrams.net" modified="2020-08-27T06:12:00.776Z" agent="5.0 (Windows NT 10.0; Win64; x64) AppleWebKit/537.36 (KHTML, like Gecko) Chrome/84.0.4147.135 Safari/537.36 Edg/84.0.522.63" etag="e2Csr_wLZ5TGGYDA5FtX" version="13.6.5" type="github">
  <diagram id="C5RBs43oDa-KdzZeNtuy" name="Page-1">
    <mxGraphModel dx="1422" dy="794" grid="1" gridSize="10" guides="1" tooltips="1" connect="1" arrows="1" fold="1" page="1" pageScale="1" pageWidth="827" pageHeight="1169" math="0" shadow="0">
      <root>
        <mxCell id="WIyWlLk6GJQsqaUBKTNV-0" />
        <mxCell id="WIyWlLk6GJQsqaUBKTNV-1" parent="WIyWlLk6GJQsqaUBKTNV-0" />
        <mxCell id="zifHTQ6psVaU4p6Sf5gW-2" style="edgeStyle=orthogonalEdgeStyle;rounded=0;orthogonalLoop=1;jettySize=auto;html=1;exitX=0.5;exitY=1;exitDx=0;exitDy=0;" edge="1" parent="WIyWlLk6GJQsqaUBKTNV-1" source="zifHTQ6psVaU4p6Sf5gW-0" target="zifHTQ6psVaU4p6Sf5gW-1">
          <mxGeometry relative="1" as="geometry" />
        </mxCell>
        <mxCell id="zifHTQ6psVaU4p6Sf5gW-0" value="Aloittava html lomake" style="ellipse;whiteSpace=wrap;html=1;" vertex="1" parent="WIyWlLk6GJQsqaUBKTNV-1">
          <mxGeometry x="360" y="30" width="120" height="80" as="geometry" />
        </mxCell>
        <mxCell id="zifHTQ6psVaU4p6Sf5gW-4" style="edgeStyle=orthogonalEdgeStyle;rounded=0;orthogonalLoop=1;jettySize=auto;html=1;exitX=0.5;exitY=1;exitDx=0;exitDy=0;entryX=0.5;entryY=0;entryDx=0;entryDy=0;" edge="1" parent="WIyWlLk6GJQsqaUBKTNV-1" source="zifHTQ6psVaU4p6Sf5gW-1" target="zifHTQ6psVaU4p6Sf5gW-3">
          <mxGeometry relative="1" as="geometry" />
        </mxCell>
        <mxCell id="zifHTQ6psVaU4p6Sf5gW-1" value="Pyydä luku" style="shape=parallelogram;perimeter=parallelogramPerimeter;whiteSpace=wrap;html=1;fixedSize=1;" vertex="1" parent="WIyWlLk6GJQsqaUBKTNV-1">
          <mxGeometry x="360" y="160" width="120" height="60" as="geometry" />
        </mxCell>
        <mxCell id="zifHTQ6psVaU4p6Sf5gW-7" style="edgeStyle=orthogonalEdgeStyle;rounded=0;orthogonalLoop=1;jettySize=auto;html=1;exitX=0.5;exitY=1;exitDx=0;exitDy=0;entryX=0.5;entryY=0;entryDx=0;entryDy=0;" edge="1" parent="WIyWlLk6GJQsqaUBKTNV-1" source="zifHTQ6psVaU4p6Sf5gW-3" target="zifHTQ6psVaU4p6Sf5gW-6">
          <mxGeometry relative="1" as="geometry" />
        </mxCell>
        <mxCell id="zifHTQ6psVaU4p6Sf5gW-3" value="Määritetään muuttuja&lt;br&gt;&lt;b&gt;var luku;&lt;/b&gt;" style="rounded=0;whiteSpace=wrap;html=1;" vertex="1" parent="WIyWlLk6GJQsqaUBKTNV-1">
          <mxGeometry x="360" y="270" width="120" height="60" as="geometry" />
        </mxCell>
        <mxCell id="zifHTQ6psVaU4p6Sf5gW-9" style="edgeStyle=orthogonalEdgeStyle;rounded=0;orthogonalLoop=1;jettySize=auto;html=1;exitX=0.5;exitY=1;exitDx=0;exitDy=0;entryX=0.5;entryY=0;entryDx=0;entryDy=0;" edge="1" parent="WIyWlLk6GJQsqaUBKTNV-1" source="zifHTQ6psVaU4p6Sf5gW-6" target="zifHTQ6psVaU4p6Sf5gW-8">
          <mxGeometry relative="1" as="geometry" />
        </mxCell>
        <mxCell id="zifHTQ6psVaU4p6Sf5gW-6" value="Lue käyttäjän antama luku muuttujaan &lt;b&gt;luku = document.get&lt;/b&gt;" style="rounded=0;whiteSpace=wrap;html=1;" vertex="1" parent="WIyWlLk6GJQsqaUBKTNV-1">
          <mxGeometry x="360" y="380" width="120" height="60" as="geometry" />
        </mxCell>
        <mxCell id="zifHTQ6psVaU4p6Sf5gW-12" style="edgeStyle=orthogonalEdgeStyle;rounded=0;orthogonalLoop=1;jettySize=auto;html=1;exitX=1;exitY=0.5;exitDx=0;exitDy=0;entryX=0;entryY=0.5;entryDx=0;entryDy=0;" edge="1" parent="WIyWlLk6GJQsqaUBKTNV-1" source="zifHTQ6psVaU4p6Sf5gW-8" target="zifHTQ6psVaU4p6Sf5gW-11">
          <mxGeometry relative="1" as="geometry" />
        </mxCell>
        <mxCell id="zifHTQ6psVaU4p6Sf5gW-16" style="edgeStyle=orthogonalEdgeStyle;rounded=0;orthogonalLoop=1;jettySize=auto;html=1;exitX=0.5;exitY=1;exitDx=0;exitDy=0;entryX=0.5;entryY=0;entryDx=0;entryDy=0;" edge="1" parent="WIyWlLk6GJQsqaUBKTNV-1" source="zifHTQ6psVaU4p6Sf5gW-8" target="zifHTQ6psVaU4p6Sf5gW-15">
          <mxGeometry relative="1" as="geometry" />
        </mxCell>
        <mxCell id="zifHTQ6psVaU4p6Sf5gW-8" value="Onko luku parillinen&lt;br&gt;&lt;b&gt;luku%2&lt;/b&gt;" style="rhombus;whiteSpace=wrap;html=1;" vertex="1" parent="WIyWlLk6GJQsqaUBKTNV-1">
          <mxGeometry x="380" y="490" width="80" height="80" as="geometry" />
        </mxCell>
        <mxCell id="zifHTQ6psVaU4p6Sf5gW-10" value="" style="endArrow=classic;html=1;" edge="1" parent="WIyWlLk6GJQsqaUBKTNV-1">
          <mxGeometry width="50" height="50" relative="1" as="geometry">
            <mxPoint x="220" y="280" as="sourcePoint" />
            <mxPoint x="220" y="120" as="targetPoint" />
            <Array as="points">
              <mxPoint x="220" y="210" />
            </Array>
          </mxGeometry>
        </mxCell>
        <mxCell id="zifHTQ6psVaU4p6Sf5gW-20" style="edgeStyle=orthogonalEdgeStyle;rounded=0;orthogonalLoop=1;jettySize=auto;html=1;exitX=0.5;exitY=1;exitDx=0;exitDy=0;entryX=1;entryY=0.5;entryDx=0;entryDy=0;" edge="1" parent="WIyWlLk6GJQsqaUBKTNV-1" source="zifHTQ6psVaU4p6Sf5gW-11" target="zifHTQ6psVaU4p6Sf5gW-18">
          <mxGeometry relative="1" as="geometry" />
        </mxCell>
        <mxCell id="zifHTQ6psVaU4p6Sf5gW-11" value="Tulosta; &quot;On parillinen&quot;" style="shape=parallelogram;perimeter=parallelogramPerimeter;whiteSpace=wrap;html=1;fixedSize=1;" vertex="1" parent="WIyWlLk6GJQsqaUBKTNV-1">
          <mxGeometry x="520" y="500" width="120" height="60" as="geometry" />
        </mxCell>
        <mxCell id="zifHTQ6psVaU4p6Sf5gW-14" value="Kyllä" style="text;html=1;strokeColor=none;fillColor=none;align=center;verticalAlign=middle;whiteSpace=wrap;rounded=0;" vertex="1" parent="WIyWlLk6GJQsqaUBKTNV-1">
          <mxGeometry x="470" y="500" width="40" height="20" as="geometry" />
        </mxCell>
        <mxCell id="zifHTQ6psVaU4p6Sf5gW-19" style="edgeStyle=orthogonalEdgeStyle;rounded=0;orthogonalLoop=1;jettySize=auto;html=1;exitX=0.5;exitY=1;exitDx=0;exitDy=0;entryX=0.5;entryY=0;entryDx=0;entryDy=0;" edge="1" parent="WIyWlLk6GJQsqaUBKTNV-1" source="zifHTQ6psVaU4p6Sf5gW-15" target="zifHTQ6psVaU4p6Sf5gW-18">
          <mxGeometry relative="1" as="geometry" />
        </mxCell>
        <mxCell id="zifHTQ6psVaU4p6Sf5gW-15" value="Tulosta: &quot;Luku on pariton&quot;" style="shape=parallelogram;perimeter=parallelogramPerimeter;whiteSpace=wrap;html=1;fixedSize=1;" vertex="1" parent="WIyWlLk6GJQsqaUBKTNV-1">
          <mxGeometry x="360" y="610" width="120" height="60" as="geometry" />
        </mxCell>
        <mxCell id="zifHTQ6psVaU4p6Sf5gW-17" value="Ei" style="text;html=1;strokeColor=none;fillColor=none;align=center;verticalAlign=middle;whiteSpace=wrap;rounded=0;" vertex="1" parent="WIyWlLk6GJQsqaUBKTNV-1">
          <mxGeometry x="360" y="575" width="40" height="20" as="geometry" />
        </mxCell>
        <mxCell id="zifHTQ6psVaU4p6Sf5gW-18" value="Lopetus" style="ellipse;whiteSpace=wrap;html=1;" vertex="1" parent="WIyWlLk6GJQsqaUBKTNV-1">
          <mxGeometry x="360" y="720" width="120" height="80" as="geometry" />
        </mxCell>
        <mxCell id="zifHTQ6psVaU4p6Sf5gW-21" value="" style="shape=cube;whiteSpace=wrap;html=1;boundedLbl=1;backgroundOutline=1;darkOpacity=0.05;darkOpacity2=0.1;" vertex="1" parent="WIyWlLk6GJQsqaUBKTNV-1">
          <mxGeometry x="30" y="320" width="220" height="80" as="geometry" />
        </mxCell>
        <mxCell id="zifHTQ6psVaU4p6Sf5gW-5" value="" style="shape=umlActor;verticalLabelPosition=bottom;verticalAlign=top;html=1;outlineConnect=0;" vertex="1" parent="WIyWlLk6GJQsqaUBKTNV-1">
          <mxGeometry x="60" y="160" width="160" height="170" as="geometry" />
        </mxCell>
        <mxCell id="zifHTQ6psVaU4p6Sf5gW-13" value="" style="shape=xor;whiteSpace=wrap;html=1;rotation=-180;" vertex="1" parent="WIyWlLk6GJQsqaUBKTNV-1">
          <mxGeometry x="20" y="180" width="60" height="80" as="geometry" />
        </mxCell>
      </root>
    </mxGraphModel>
  </diagram>
</mxfile>
